<?xml version="1.0" encoding="utf-8"?>
<!-- Generator: Adobe Illustrator 22.0.1, SVG Export Plug-In . SVG Version: 6.00 Build 0)  -->
<svg version="1.1" id="Layer_1" xmlns="http://www.w3.org/2000/svg" xmlns:xlink="http://www.w3.org/1999/xlink" x="0px" y="0px"
	 viewBox="0 0 244 131.9" style="enable-background:new 0 0 244 131.9;" xml:space="preserve">
<style type="text/css">
	.st0{fill:#355466;}
	.st1{fill:#3E5566;}
	.st2{fill:none;stroke:#3E5566;stroke-miterlimit:10;}
	.st3{fill:none;stroke:#3A596A;stroke-width:3;stroke-miterlimit:10;}
</style>
<path class="st0" d="M12,77.9h1.8v23.4H12V77.9z"/>
<path class="st0" d="M40.3,77.9v23.4h-2L24.5,80.4v20.9h-1.8V77.9h2l13.8,20.9V77.9H40.3z"/>
<path class="st0" d="M46.8,95.3l1.8-0.4c0.6,3.3,3.3,5.2,7.1,5.2c3.8,0,6.4-2.1,6.4-4.9c0-6.6-13.8-4.4-13.8-11.6
	c0-3.5,3.1-5.8,7.2-5.8c3.2,0,5.6,1.1,7.3,3.7l-1.5,0.8c-1.3-2.1-3.2-3-5.8-3c-3,0-5.3,1.8-5.3,4.3c0,5.9,13.8,3.9,13.8,11.6
	c0,3.9-3.6,6.5-8.3,6.5C51.2,101.5,47.5,99.3,46.8,95.3z"/>
<path class="st0" d="M70.6,77.9h6.9c5.3,0,8.7,2.4,8.7,6.5c0,4.1-3.3,6.5-8.7,6.5h-5.1v10.4h-1.8V77.9z M77.5,89.4
	c4.5,0,6.9-1.8,6.9-4.9c0-3.1-2.5-5-6.9-5h-5.1v9.9H77.5z"/>
<path class="st0" d="M93.1,77.9h1.8v23.4h-1.8V77.9z"/>
<path class="st0" d="M103.8,77.9h7c5.1,0,8.6,2.3,8.6,6.4c0,3.2-2.2,5.3-5.7,6l7.3,11h-2.1l-7-10.8c-0.6,0-1.2,0.1-1.8,0.1h-4.4
	v10.7h-1.8V77.9z M110.9,89.2c4.3,0,6.7-1.7,6.7-4.9c0-3.1-2.6-5-6.8-5h-5.2v9.8H110.9z"/>
<path class="st0" d="M133.9,77.9h1.7l9.5,23.4h-2l-2.3-5.8h-12.1l-2.3,5.8h-2L133.9,77.9z M140.2,94.1l-5.5-14l-5.5,14H140.2z"/>
<path class="st0" d="M155.2,79.4h-9.5v-1.5h20.8v1.5H157v21.9h-1.8V79.4z"/>
<path class="st0" d="M172.4,77.9h1.8v23.4h-1.8V77.9z"/>
<path class="st0" d="M181.4,89.6c0-6.4,3.8-11.9,11.8-11.9c8.1,0,11.9,5.5,11.9,11.9s-3.8,11.9-11.9,11.9
	C185.3,101.6,181.4,96,181.4,89.6z M203.3,89.6c0-5.7-3.1-10.4-10-10.4c-6.9,0-9.9,4.8-9.9,10.4c0,5.7,3,10.5,9.9,10.5
	C200.2,100.1,203.3,95.3,203.3,89.6z"/>
<path class="st0" d="M230,77.9v23.4h-2l-13.8-20.9v20.9h-1.8V77.9h2l13.8,20.9V77.9H230z"/>
<ellipse transform="matrix(0.9997 -2.422724e-02 2.422724e-02 0.9997 -0.6747 2.2202)" class="st1" cx="91.3" cy="29" rx="14.6" ry="12.3"/>
<path class="st1" d="M104.7,24.2c4.1,12.5-4.9,16.6-1.4,27.2l-8.8,2.1C91.1,42.8,81,43.3,76.9,30.8"/>
<path class="st1" d="M103.8,55l-8.1,1.9c-1.1,0.3-2.2-0.3-2.5-1.2v0c-0.3-0.9,0.3-1.9,1.4-2.2l8.1-1.9c1.1-0.3,2.2,0.3,2.5,1.2v0
	C105.5,53.7,104.9,54.7,103.8,55z"/>
<path class="st1" d="M104.8,57.8l-8.2,2c-0.9,0.2-1.9-0.2-2.1-1v0c-0.3-0.8,0.3-1.6,1.2-1.8l8.2-2c0.9-0.2,1.9,0.2,2.1,1v0
	C106.3,56.8,105.7,57.6,104.8,57.8z"/>
<path class="st1" d="M105.5,60.7l-7.7,1.8c-0.9,0.2-1.9-0.2-2.1-1v0c-0.3-0.8,0.3-1.6,1.2-1.8l7.7-1.8c0.9-0.2,1.9,0.2,2.1,1l0,0
	C106.9,59.7,106.4,60.5,105.5,60.7z"/>
<ellipse transform="matrix(3.823683e-02 -0.9993 0.9993 3.823683e-02 109.3839 176.9019)" class="st1" cx="146.6" cy="31.6" rx="10.2" ry="12"/>
<path class="st1" d="M157.6,35.8c-5.5,9.6-14,8.2-18.8,16.4l-6.7-2.8c4.7-8.2-1.9-12.7,3.6-22.3"/>
<path class="st1" d="M136.9,54.6l-6.2-2.6c-0.8-0.4-1.2-1.2-0.8-1.9v0c0.4-0.7,1.4-1,2.3-0.7l6.2,2.6c0.8,0.4,1.2,1.2,0.8,1.9v0
	C138.8,54.6,137.7,54.9,136.9,54.6z"/>
<path class="st1" d="M135.7,56.8l-6.3-2.7c-0.7-0.3-1-1-0.7-1.6v0c0.4-0.6,1.2-0.9,1.9-0.6l6.3,2.7c0.7,0.3,1,1,0.7,1.6l0,0
	C137.2,56.9,136.4,57.1,135.7,56.8z"/>
<path class="st1" d="M134.2,58.9l-5.9-2.5c-0.7-0.3-1-1-0.7-1.6l0,0c0.4-0.6,1.2-0.9,1.9-0.6l5.9,2.5c0.7,0.3,1,1,0.7,1.6l0,0
	C135.8,59,134.9,59.2,134.2,58.9z"/>
<g>
	<path class="st1" d="M96.1,45.5c-1.6-3.2-2.3-6.7-3.4-10.1s-2.7-6.8-5.5-8.9c-0.3-0.2-0.7-0.5-1.1-0.5c-1.2-0.2-2,1.1-2.3,2.2
		c-0.1,0.6-0.2,1.2,0,1.7c0.4,1.1,1.8,1.6,3.1,1.6c4,0.1,7.9-2.7,8.9-6.4c0.3-0.9,0.3-2-0.5-2.6c-1-0.7-2.4,0.3-2.8,1.5
		c-0.8,2.2,0.3,4.5,1.5,6.6c1.2,2.2,2.4,4.5,3.6,6.7c0.3,0.6,0.8,1.3,1.4,1.3"/>
</g>
<g>
	<path class="st1" d="M138,45.5c1.9-2.6,5.7-11,6.7-13.9c0.2-0.7,0.4-1.3,0.2-2c-0.1-0.7-0.7-1.3-1.4-1.5c-0.2,0-0.4-0.1-0.5,0
		c-0.2,0.1-0.4,0.3-0.5,0.5c-0.5,0.7-0.9,1.6-0.5,2.4c0.3,0.4,0.8,0.7,1.3,1c0.8,0.4,1.7,0.8,2.6,1.1s2,0.2,2.8-0.2
		c0.9-0.4,1.5-1.2,1.9-2c0.2-0.5,0.3-1.2-0.3-1.3c-0.2,0-0.4,0-0.6,0.1c-1.8,0.8-2.4,2.7-2.8,4.4c-0.4,1.9-2.9,5.5-3.4,7.4"/>
</g>
<ellipse transform="matrix(0.2259 -0.9742 0.9742 0.2259 55.0038 141.9065)" class="st1" cx="116.8" cy="36.3" rx="7.3" ry="8.6"/>
<path class="st1" d="M125.1,35.6c0.5,7.7-5.2,8.7-4.8,15.3l-5.3-0.1c-0.4-6.6-6.2-7.8-6.7-15.5"/>
<path class="st1" d="M120.1,53l-4.9-0.1c-0.7,0-1.2-0.5-1.3-1.1v0c0-0.6,0.5-1,1.1-1l4.9,0.1c0.7,0,1.2,0.5,1.3,1.1v0
	C121.3,52.5,120.8,53,120.1,53z"/>
<path class="st1" d="M120.3,54.8l-5-0.1c-0.6,0-1-0.4-1.1-0.9l0,0c0-0.5,0.4-0.9,1-0.9l5,0.1c0.6,0,1,0.4,1.1,0.9v0
	C121.3,54.4,120.8,54.8,120.3,54.8z"/>
<path class="st1" d="M120.2,56.5l-4.7-0.1c-0.6,0-1-0.4-1.1-0.9v0c0-0.5,0.4-0.9,1-0.9l4.7,0.1c0.6,0,1,0.4,1.1,0.9v0
	C121.2,56.2,120.8,56.5,120.2,56.5z"/>
<g>
	<path class="st1" d="M118.5,46.5c0.1-2.1-0.3-4.2-0.5-6.2s-0.1-4.3,0.9-6.1c0.1-0.2,0.3-0.4,0.5-0.5c0.6-0.4,1.3,0.1,1.8,0.7
		c0.2,0.3,0.4,0.6,0.4,0.9c0.1,0.7-0.6,1.3-1.3,1.6c-2.1,1-4.9,0.4-6.3-1.4c-0.3-0.4-0.6-1-0.3-1.5c0.4-0.6,1.4-0.4,1.9,0.1
		c0.9,1,0.9,2.5,0.7,3.9c-0.1,1.5-0.3,3-0.4,4.5c0,0.4-0.1,0.9-0.5,1"/>
</g>
<line class="st3" x1="12" y1="69.1" x2="230" y2="69.1"/>
</svg>
