<?xml version="1.0" encoding="utf-8"?>
<!-- Generator: Adobe Illustrator 22.0.1, SVG Export Plug-In . SVG Version: 6.00 Build 0)  -->
<svg version="1.1" id="Layer_1" xmlns="http://www.w3.org/2000/svg" xmlns:xlink="http://www.w3.org/1999/xlink" x="0px" y="0px"
	 viewBox="0 0 234.9 131.9" style="enable-background:new 0 0 234.9 131.9;" xml:space="preserve">
<style type="text/css">
	.st0{fill:#355466;}
	.st1{fill:#3E5566;}
	.st2{fill:none;stroke:#3E5566;stroke-miterlimit:10;}
	.st3{fill:none;stroke:#3A596A;stroke-width:3;stroke-miterlimit:10;}
</style>
<path class="st0" d="M53.4,77.9v23.4h-2L37.6,80.4v20.9h-1.8V77.9h2l13.8,20.9V77.9H53.4z"/>
<path class="st0" d="M69.3,92.5L59.2,77.9h2.2l8.8,12.9L79,77.9h2.2L71.2,92.5v8.9h-1.9V92.5z"/>
<path class="st0" d="M87,77.9h1.8v10.8h14.6V77.9h1.8v23.4h-1.8v-11H88.9v11H87V77.9z"/>
<path class="st0" d="M114.2,77.9h17.1v1.5H116v9.4h13.6v1.5H116v9.5h15.3v1.6h-17.1V77.9z"/>
<path class="st0" d="M138,77.9h6.9c8.6,0,13.3,4.3,13.3,11.9c0,7.3-4.8,11.5-13.4,11.5H138V77.9z M144.8,99.8
	c7.4,0,11.7-3.4,11.7-10.1c0-6.8-3.8-10.3-11.5-10.3h-5v20.4H144.8z"/>
<path class="st0" d="M165.5,77.9h17.1v1.5h-15.3v9.4h13.6v1.5h-13.6v9.5h15.3v1.6h-17.1V77.9z"/>
<path class="st0" d="M189.4,77.9h7c5.1,0,8.6,2.3,8.6,6.4c0,3.2-2.2,5.3-5.7,6l7.3,11h-2.1l-7-10.8c-0.6,0-1.2,0.1-1.8,0.1h-4.4
	v10.7h-1.8V77.9z M196.5,89.2c4.3,0,6.7-1.7,6.7-4.9c0-3.1-2.6-5-6.8-5h-5.2v9.8H196.5z"/>
<rect x="80.5" y="42.6" class="st1" width="82" height="19"/>
<polyline class="st2" points="161.2,43.6 121.7,16.1 81.2,43.6 "/>
<circle class="st0" cx="121.7" cy="15.6" r="1.5"/>
<line class="st3" x1="35.6" y1="69.1" x2="207.4" y2="69.1"/>
</svg>
