<svg xmlns="http://www.w3.org/2000/svg" class="svg-inline--fa fa-map fa-w-18" role="img" aria-hidden="true" viewBox="0 0 576 512" data-icon="map" data-prefix="fal" data-fa-processed=""><path fill="currentColor" d="M 531.004 34.78 L 397.62 94.04 L 184.791 33.231 a 31.997 31.997 0 0 0 -21.788 1.527 l -144 64 A 32 32 0 0 0 0 128 v 319.978 c 0 23.291 23.994 38.577 44.996 29.242 l 133.384 -59.26 l 212.829 60.808 a 31.997 31.997 0 0 0 21.788 -1.527 l 144 -64 A 31.997 31.997 0 0 0 576 384 V 64.022 c 0 -23.291 -23.994 -38.577 -44.996 -29.242 Z M 192 68.571 l 192 54.857 v 320 l -192 -54.857 v -320 Z M 32 448 V 128 l 128 -56.889 v 320 L 32 448 Z m 512 -64 l -128 56.889 v -320 L 544 64 v 320 Z" /></svg>
