<svg xmlns="http://www.w3.org/2000/svg" class="svg-inline--fa fa-clipboard fa-w-12" role="img" aria-hidden="true" viewBox="0 0 384 512" data-icon="clipboard" data-prefix="fal" data-fa-processed=""><path fill="currentColor" d="M 336 64 h -88.581 c 0.375 -2.614 0.581 -5.283 0.581 -8 c 0 -30.879 -25.122 -56 -56 -56 s -56 25.121 -56 56 c 0 2.717 0.205 5.386 0.581 8 H 48 C 21.49 64 0 85.49 0 112 v 352 c 0 26.51 21.49 48 48 48 h 288 c 26.51 0 48 -21.49 48 -48 V 112 c 0 -26.51 -21.49 -48 -48 -48 Z m 16 400 c 0 8.822 -7.178 16 -16 16 H 48 c -8.822 0 -16 -7.178 -16 -16 V 112 c 0 -8.822 7.178 -16 16 -16 h 48 v 20 c 0 6.627 5.373 12 12 12 h 168 c 6.627 0 12 -5.373 12 -12 V 96 h 48 c 8.822 0 16 7.178 16 16 v 352 Z M 192 32 c 13.255 0 24 10.745 24 24 s -10.745 24 -24 24 s -24 -10.745 -24 -24 s 10.745 -24 24 -24" /></svg>
