<svg xmlns="http://www.w3.org/2000/svg" class="svg-inline--fa fa-phone fa-w-16" role="img" aria-hidden="true" viewBox="0 0 512 512" data-icon="phone" data-prefix="fal" data-fa-processed=""><path fill="currentColor" d="M 487.776 24.051 L 387.025 0.806 c -14.745 -3.405 -29.786 4.226 -35.749 18.14 l -46.5 108.494 c -5.452 12.723 -1.778 27.73 8.935 36.495 l 53.854 44.063 c -34.011 69.234 -90.333 125.557 -159.566 159.566 l -44.063 -53.854 c -8.765 -10.713 -23.774 -14.385 -36.496 -8.935 L 18.946 351.276 C 5.031 357.24 -2.598 372.275 0.806 387.026 l 23.244 100.75 C 27.342 502.039 39.864 512 54.5 512 C 306.659 512 512 307.793 512 54.5 c 0 -14.638 -9.961 -27.159 -24.224 -30.449 Z M 55.096 480 l -22.972 -99.557 l 107.402 -46.03 l 59.53 72.757 c 103.641 -48.624 159.675 -104.867 208.113 -208.113 l -72.758 -59.53 l 46.031 -107.402 L 480 55.096 C 479.68 289.713 289.638 479.68 55.096 480 Z" /></svg>
