<?xml version="1.0" encoding="utf-8"?>
<!-- Generator: Adobe Illustrator 22.0.1, SVG Export Plug-In . SVG Version: 6.00 Build 0)  -->
<svg version="1.1" id="Layer_1" xmlns="http://www.w3.org/2000/svg" xmlns:xlink="http://www.w3.org/1999/xlink" x="0px" y="0px"
	 viewBox="0 0 313 131.9" style="enable-background:new 0 0 313 131.9;" xml:space="preserve">
<style type="text/css">
	.st0{fill:#355466;}
	.st1{fill:#3E5566;}
	.st2{fill:none;stroke:#3E5566;stroke-miterlimit:10;}
	.st3{fill:none;stroke:#3A596A;stroke-width:3;stroke-miterlimit:10;}
</style>
<path class="st0" d="M17.2,77.9h7c5.1,0,8.6,2.3,8.6,6.4c0,3.2-2.2,5.3-5.7,6l7.3,11h-2.1l-7-10.8c-0.6,0-1.2,0.1-1.8,0.1h-4.4v10.7
	h-1.8V77.9z M24.4,89.2c4.3,0,6.7-1.7,6.7-4.9c0-3.1-2.6-5-6.8-5h-5.2v9.8H24.4z"/>
<path class="st0" d="M40.7,77.9h17.1v1.5H42.6v9.4h13.6v1.5H42.6v9.5h15.3v1.6H40.7V77.9z"/>
<path class="st0" d="M62.3,95.3l1.8-0.4c0.6,3.3,3.3,5.2,7.1,5.2c3.8,0,6.4-2.1,6.4-4.9c0-6.6-13.8-4.4-13.8-11.6
	c0-3.5,3.1-5.8,7.2-5.8c3.2,0,5.6,1.1,7.3,3.7l-1.5,0.8c-1.3-2.1-3.2-3-5.8-3c-3,0-5.3,1.8-5.3,4.3c0,5.9,13.8,3.9,13.8,11.6
	c0,3.9-3.6,6.5-8.3,6.5C66.7,101.5,63,99.3,62.3,95.3z"/>
<path class="st0" d="M92.5,79.4H83v-1.5h20.8v1.5h-9.5v21.9h-1.8V79.4z"/>
<path class="st0" d="M114,77.9h1.7l9.5,23.4h-2l-2.3-5.8h-12.1l-2.3,5.8h-2L114,77.9z M120.3,94.1l-5.5-14l-5.5,14H120.3z"/>
<path class="st0" d="M130.1,92.7V77.9h1.8v14.6c0,4.8,2.3,7.5,7.3,7.5c5,0,7.4-2.7,7.4-7.6V77.9h1.8v14.6c0,5.7-3.1,9.1-9.2,9.1
	C133.1,101.6,130.1,98.2,130.1,92.7z"/>
<path class="st0" d="M156.8,77.9h7c5.1,0,8.6,2.3,8.6,6.4c0,3.2-2.2,5.3-5.7,6l7.3,11h-2.1l-7-10.8c-0.6,0-1.2,0.1-1.8,0.1h-4.4
	v10.7h-1.8V77.9z M164,89.2c4.3,0,6.7-1.7,6.7-4.9c0-3.1-2.6-5-6.8-5h-5.2v9.8H164z"/>
<path class="st0" d="M186.9,77.9h1.7l9.5,23.4h-2l-2.3-5.8h-12.1l-2.3,5.8h-2L186.9,77.9z M193.2,94.1l-5.5-14l-5.5,14H193.2z"/>
<path class="st0" d="M221.8,77.9v23.4h-2l-13.8-20.9v20.9h-1.8V77.9h2L220,98.8V77.9H221.8z"/>
<path class="st0" d="M237.2,79.4h-9.5v-1.5h20.8v1.5H239v21.9h-1.8V79.4z"/>
<path class="st0" d="M254.4,77.9h17.1v1.5h-15.3v9.4h13.6v1.5h-13.6v9.5h15.3v1.6h-17.1V77.9z"/>
<path class="st0" d="M278.3,77.9h7c5.1,0,8.6,2.3,8.6,6.4c0,3.2-2.2,5.3-5.7,6l7.3,11h-2.1l-7-10.8c-0.6,0-1.2,0.1-1.8,0.1h-4.4
	v10.7h-1.8V77.9z M285.4,89.2c4.3,0,6.7-1.7,6.7-4.9c0-3.1-2.6-5-6.8-5h-5.2v9.8H285.4z"/>
<path class="st1" d="M190.8,61.8h-70.1c0-21,15.7-38.1,35-38.1S190.8,40.7,190.8,61.8z"/>
<ellipse class="st1" cx="156" cy="19.5" rx="2.4" ry="2.4"/>
<line class="st3" x1="16.6" y1="69.1" x2="294.9" y2="69.1"/>
</svg>
