<?xml version="1.0" encoding="utf-8"?>
<!-- Generator: Adobe Illustrator 22.0.1, SVG Export Plug-In . SVG Version: 6.00 Build 0)  -->
<svg version="1.1" id="Layer_1" xmlns="http://www.w3.org/2000/svg" xmlns:xlink="http://www.w3.org/1999/xlink" x="0px" y="0px"
	 viewBox="0 0 278 131.9" style="enable-background:new 0 0 278 131.9;" xml:space="preserve">
<style type="text/css">
	.st0{fill:#355466;}
	.st1{fill:#3E5566;}
	.st2{fill:none;stroke:#3E5566;stroke-miterlimit:10;}
	.st3{fill:none;stroke:#3A596A;stroke-width:3;stroke-miterlimit:10;}
</style>
<path class="st0" d="M22.9,77.9h6.9c8.6,0,13.3,4.3,13.3,11.9c0,7.3-4.8,11.5-13.4,11.5h-6.9V77.9z M29.6,99.8
	c7.4,0,11.7-3.4,11.7-10.1c0-6.8-3.8-10.3-11.5-10.3h-5v20.4H29.6z"/>
<path class="st0" d="M50.3,77.9h17.1v1.5H52.1v9.4h13.6v1.5H52.1v9.5h15.3v1.6H50.3V77.9z"/>
<path class="st0" d="M74.2,77.9H76v21.8h12.3v1.6H74.2V77.9z"/>
<path class="st0" d="M94.3,77.9h1.8v23.4h-1.8V77.9z"/>
<path class="st0" d="M105,77.9h1.8v14.7l15.8-14.7h2.5l-9.9,9.1l10.6,14.3h-2.3l-9.6-13.2l-7.1,6.5v6.7H105V77.9z"/>
<path class="st0" d="M138.2,77.9h1.7l9.5,23.4h-2l-2.3-5.8H133l-2.3,5.8h-2L138.2,77.9z M144.5,94.1l-5.5-14l-5.5,14H144.5z"/>
<path class="st0" d="M159.5,79.4H150v-1.5h20.8v1.5h-9.5v21.9h-1.8V79.4z"/>
<path class="st0" d="M176.7,77.9h17.1v1.5h-15.3v9.4h13.6v1.5h-13.6v9.5h15.3v1.6h-17.1V77.9z"/>
<path class="st0" d="M198.3,95.3l1.8-0.4c0.6,3.3,3.3,5.2,7.1,5.2c3.8,0,6.4-2.1,6.4-4.9c0-6.6-13.8-4.4-13.8-11.6
	c0-3.5,3.1-5.8,7.2-5.8c3.2,0,5.6,1.1,7.3,3.7l-1.5,0.8c-1.3-2.1-3.2-3-5.8-3c-3,0-5.3,1.8-5.3,4.3c0,5.9,13.8,3.9,13.8,11.6
	c0,3.9-3.6,6.5-8.3,6.5C202.7,101.5,199.1,99.3,198.3,95.3z"/>
<path class="st0" d="M219.8,95.3l1.8-0.4c0.6,3.3,3.3,5.2,7.1,5.2c3.8,0,6.4-2.1,6.4-4.9c0-6.6-13.8-4.4-13.8-11.6
	c0-3.5,3.1-5.8,7.2-5.8c3.2,0,5.6,1.1,7.3,3.7l-1.5,0.8c-1.3-2.1-3.2-3-5.8-3c-3,0-5.3,1.8-5.3,4.3c0,5.9,13.8,3.9,13.8,11.6
	c0,3.9-3.6,6.5-8.3,6.5C224.1,101.5,220.5,99.3,219.8,95.3z"/>
<path class="st0" d="M243.6,77.9h17.1v1.5h-15.3v9.4H259v1.5h-13.6v9.5h15.3v1.6h-17.1V77.9z"/>
<path class="st1" d="M154.7,48.2c0,0,2.2-23.2,6.6-29.8c2.2-3.4,8.6-2.5,9.2,0.8c1.4,7.5-5.1,30.2-5.1,30.2L154.7,48.2z"/>
<path class="st1" d="M157.9,28.6c1.5-0.2,3.1-0.3,4.7-0.3s3.2,0.3,4.5,0.9"/>
<path class="st1" d="M156.8,36.2c1.4-0.3,3-0.5,4.5-0.4c1.6,0.1,3.2,0.4,4.4,1.1"/>
<path class="st1" d="M156.3,39.8c1.4-0.3,3-0.5,4.5-0.4c1.6,0.1,3.2,0.4,4.4,1.1"/>
<path class="st1" d="M140.8,36.5c-0.4-1.6-1.9-2.9-3.4-3.9c-1.9-1.3-4.4-2.6-6.8-2.2c2.1-3,3.8-9.4-3-9.7c-1.4-0.1-2.1,1.7-2.5,2.9
	c0.3-1.6-0.3-3.4-1.7-4.6c-1.4-1.1-3.7-1.5-5.5-0.8c-1.8,0.7-2.9,2.3-3.3,3.9s-0.2,3.3,0,5c-1.7-0.9-4.1-0.6-5.8,0.3
	c-1.8,1-3,2.7-3.3,4.5c-0.3,1.8,0.4,3.7,1.8,5.1c-1.2-0.5-2.8,0.1-3.4,1.1c-0.6,1-0.4,2.3,0.4,3.2c0.8,0.9,2,1.5,3.4,1.8l0,0.3
	c-0.6-0.1-1.2-0.1-1.8-0.1c0,0.1,0,0.1,0.1,0.2c0.1,0.5,0.3,0.9,0.5,1.4c0.1,0.2,0.2,0.3,0.2,0.5c0.6,1.2,1.2,2.4,1.2,3.8
	c0,0.3-0.1,0.6-0.2,0.8c0.7,1.7,2.2,3.2,4.1,4.1c2,1,4.4,1.4,6.7,1.5c1.2,0.1,2.3,0,3.4-0.4c1.1-0.4,2-1.2,2.1-2.2
	c1,1.3,3,1.9,4.8,1.7s3.4-1,4.9-2c2.1-1.4,3.9-3.6,3.4-5.8c-0.3-1.5-1.7-2.7-2.2-4.1c1.7-0.4,3.3-1.1,4.5-2.2
	C140.4,39.5,141.1,38,140.8,36.5z"/>
<path class="st1" d="M119.4,23.4c0,0-2.5,0.2-2.4,0.6c0,0.2,0.5,0.4,0.5,0.6c0.6,2.5,2,8.4,2,8.4s-3.3,1-3,2.3
	c1.1,4.5,4.3,17.7,4.3,17.7l5.4-0.8l-0.1,0l5.4-0.8c0,0-3.2-13.1-4.3-17.7c-0.3-1.3-3.9-1.4-3.9-1.4s-1.4-5.9-2-8.4
	c-0.1-0.2,0.2-0.5,0.2-0.7c-0.1-0.4-2.5,0.1-2.5,0.1L119.4,23.4z"/>
<ellipse transform="matrix(8.407032e-02 -0.9965 0.9965 8.407032e-02 102.6648 186.2727)" class="st1" cx="152.7" cy="37.3" rx="5.1" ry="7.5"/>
<path class="st1" d="M153.2,32.8c0.4-0.9,1.2-1.9-0.8-3.7c-0.3-0.2-1.1-0.6-1.5-0.8c-0.6-0.3-1.1-0.7-1.6-1.1
	c-0.2,0.6-0.3,1.1-0.5,1.7c-0.2,0.7-0.4,1.5-0.1,2.2c0.3,0.6,1,1.1,1.8,1.4C151.4,32.8,152.3,32.9,153.2,32.8"/>
<path class="st1" d="M153.7,33.1c0.3-1.3,1.8-2.4,3.5-2.7"/>
<path class="st1" d="M131.8,25.3c0,0-2.5-0.1-2.5,0.4c0,0.2,0.4,0.4,0.4,0.6c0.2,2.5,0.8,8.5,0.8,8.5s-3.5,0.8-3.3,2.1
	c0.5,4.6,1.8,17.9,1.8,17.9l5.5-0.3l-0.1,0l5.5-0.3c0,0-1.3-13.3-1.8-17.9c-0.1-1.3-3.7-1.7-3.7-1.7s-0.6-6-0.8-8.5
	c0-0.2,0.3-0.5,0.3-0.7c0-0.4-2.5-0.1-2.5-0.1L131.8,25.3z"/>
<ellipse class="st1" cx="144.9" cy="40.7" rx="7.5" ry="5"/>
<path class="st1" d="M164.6,47c0,0,6.4-22.7,11.9-28.9c2.8-3.2,9-1.6,9,1.7c0,7.5-10.4,29.4-10.4,29.4L164.6,47z"/>
<path class="st1" d="M171.4,27.9c1.5,0,3.1,0,4.7,0.2c1.6,0.2,3.1,0.6,4.3,1.4"/>
<path class="st1" d="M169,35.3c1.5-0.1,3-0.2,4.6,0.1c1.5,0.2,3,0.8,4.1,1.5"/>
<path class="st1" d="M165.9,42.7c1.5-0.1,3-0.2,4.6,0.1c1.5,0.2,3,0.8,4.1,1.5"/>
<path class="st1" d="M103.5,39.5c0,0,2.2,2.1,6.5,2.1c2.3,0,3.9-0.6,5.8-1.7c1.9-1,4.2-1.9,6.3-1.4c0.9,0.2,1.7,0.6,2.5,1
	c1.8,0.9,3.7,1.8,5.7,2.2c2,0.4,4.3,0.2,6-0.9c1.5-0.9,2.4-2.5,4.1-3.1c1.9-0.7,4,0,5.8,0.8s3.6,1.9,5.6,1.8c4.4,0,7.6-4.8,11.9-4.2
	c2.5,0.3,4.2,2.4,6.3,3.5c2.6,1.3,6,1.3,8.6,0l0.9-0.2v22.8h-76.1V39.5L103.5,39.5z"/>
<path class="st1" d="M144.4,36.4c0.1-0.9,0.5-2.1-2.1-3.4c-0.3-0.2-1.3-0.4-1.7-0.5c-0.7-0.1-1.3-0.4-2-0.7c0.1,0.6,0.1,1.2,0.2,1.8
	c0.1,0.7,0.2,1.5,0.7,2.1c0.5,0.6,1.4,0.9,2.3,1C142.7,36.8,143.6,36.6,144.4,36.4"/>
<path class="st1" d="M144.6,36.4c-0.1-1.3,0.9-2.7,2.4-3.3"/>
<line class="st3" x1="21.1" y1="69.1" x2="260.1" y2="69.1"/>
</svg>
