<svg xmlns="http://www.w3.org/2000/svg" class="svg-inline--fa fa-clock fa-w-16" role="img" aria-hidden="true" viewBox="0 0 512 512" data-icon="clock" data-prefix="fal" data-fa-processed=""><path fill="currentColor" d="M 256 8 C 119 8 8 119 8 256 s 111 248 248 248 s 248 -111 248 -248 S 393 8 256 8 Z m 216 248 c 0 118.7 -96.1 216 -216 216 c -118.7 0 -216 -96.1 -216 -216 c 0 -118.7 96.1 -216 216 -216 c 118.7 0 216 96.1 216 216 Z m -148.9 88.3 l -81.2 -59 c -3.1 -2.3 -4.9 -5.9 -4.9 -9.7 V 116 c 0 -6.6 5.4 -12 12 -12 h 14 c 6.6 0 12 5.4 12 12 v 146.3 l 70.5 51.3 c 5.4 3.9 6.5 11.4 2.6 16.8 l -8.2 11.3 c -3.9 5.3 -11.4 6.5 -16.8 2.6 Z" /></svg>
