<svg id="Layer_1" data-name="Layer 1" xmlns="http://www.w3.org/2000/svg" viewBox="0 0 151.49 174"><defs><style>.cls-1{fill:#3a4d56;}.cls-2{fill:#7ca4c4;}.cls-3{fill:#fff;}</style></defs><title>circle</title><circle class="cls-1" cx="77.31" cy="86.97" r="58.5"/><path class="cls-2" d="M72,28.79c-1.09,1.47,3.32,5.67,4.86,6.68s3.46,1.86,4,3.63c.92,3.27-3.89,5.93-3.34,9.28.38,2.32,3,3.38,4.69,5a9.53,9.53,0,0,1,2.49,6.81,28.48,28.48,0,0,1-1.29,7.3c-1.78,6.62-5.44,5.66-8.85,11.61,1.78-3.23,5.78,1.43,8.26-1.29a9.28,9.28,0,0,1,2.94-2.4c2.51-1.13,5.4-.12,8,.68a52.31,52.31,0,0,0,19.82,2.05c1.84-.16,3.87-.54,5-2a12.73,12.73,0,0,0,1.26-3.52c.4-1.18,1.32-2.4,2.57-2.37a3.69,3.69,0,0,1,1.69.64l7.18,4.17a2.09,2.09,0,0,0,2,.38,4.72,4.72,0,0,0,1-2.92c-13-43-50.32-45.06-62.31-43.81Z"/><path class="cls-2" d="M85.07,85.83a4,4,0,0,1-3.19,2,30.77,30.77,0,0,1-4,0,9.2,9.2,0,0,0-5.06,1.47,6.12,6.12,0,0,0-2.75,4.39,8,8,0,0,0,.6,3.43c2,5.5,6.89,9.78,8,15.53.43,2.18.29,4.46.84,6.61.22.85.54,1.67.68,2.53.34,2.08-.41,4.17-.72,6.26s0,4.57,1.79,5.7,4.19.35,5.65-1.13A17.29,17.29,0,0,0,90,127.3c1.19-2.7,2.74-5.39,5.21-7a14.9,14.9,0,0,1,4-1.68,42.86,42.86,0,0,1,6.91-1.45,5.18,5.18,0,0,0,2.61-.78,4.44,4.44,0,0,0,1.32-3.28,19,19,0,0,0-2.16-10.67,14.43,14.43,0,0,0-8.3-6.85c-1.79-.54-3.72-.68-5.39-1.5a2.56,2.56,0,0,1-1.17-1,3.17,3.17,0,0,1-.27-1.26l-.3-4.46a1.83,1.83,0,0,0-2.08-2.15l-4.28-.3Z"/><path class="cls-2" d="M20.15,99.45c1.38,1.55,2.62,1.16,3.25,2.83a5.5,5.5,0,0,0,3.65,3.59c2.32.54,5.1-.91,7,.56,1.32,1,1.4,3,1.53,4.64s.72,3.66,2.35,4.09c.55.15,1.15.08,1.69.24,1.24.37,1.84,1.72,2.39,2.89A10.76,10.76,0,0,0,45.66,123a5.13,5.13,0,0,0,5.68.13,5.91,5.91,0,0,0,2-4.89c0-1.83-.5-3.62-.63-5.44a1.16,1.16,0,0,1,.16-.82,1.21,1.21,0,0,1,1-.29c3.32,0,1.92-17.28,10,.11A12.39,12.39,0,0,1,62.46,122c-1.06,1.65-2.51,3.06-3.28,4.86a7.6,7.6,0,0,0,4.47,9.82c2.54.82,5.77.38,7.45,2.45a12.25,12.25,0,0,0,1.29,1.72c1,.85,2.45.69,3.74.49l5.84-.92.49,2.51a1.42,1.42,0,0,1,0,.89c-.13.27-.27,1.42-.57,1.43-45.75,1.8-60.82-36.82-61.73-45.84"/><path class="cls-2" d="M48.2,40.51a13.32,13.32,0,0,0-2.74,8.68,3.61,3.61,0,0,0,.36,1.56,4,4,0,0,0,1.55,1.33l7,4.15a2.87,2.87,0,0,1,1.29,1.19c.35.83-.16,1.75-.34,2.64a5.66,5.66,0,0,0,1.39,4.4c1,1.26,7.21-4.13,8.11-2.82,1.58,2.28,7.74,4.32,7,7C70.34,68.45,73,83.8,54.65,74.8,50.21,72.62,49.37,68,44.85,66c-3-1.3-6.53-2.28-9.27-.56s-3.41,5.4-2.6,8.45a23,23,0,0,1,1.22,4.55c.16,2.61-1.44,5.13-1.13,7.72A5.45,5.45,0,0,0,36,90.28a1.6,1.6,0,0,1,.79.6c.26.54-.26,1.14-.8,1.42-2.23,1.19-4.94.23-7.34-.56s-5.39-1.27-7.17.54a21.73,21.73,0,0,1-2.21,1.65c-3-26.27,11.54-44.56,18.52-50a20.2,20.2,0,0,1,10.57-4"/><path class="cls-3" d="M102.3,92.43S78.07,58.3,101.8,58.3C123.25,58.3,102.3,92.43,102.3,92.43Z"/><circle class="cls-1" cx="101.42" cy="70" r="5.36"/></svg>
