<?xml version="1.0" encoding="utf-8"?>
<!-- Generator: Adobe Illustrator 22.1.0, SVG Export Plug-In . SVG Version: 6.00 Build 0)  -->
<svg version="1.1" id="Layer_1" xmlns="http://www.w3.org/2000/svg" xmlns:xlink="http://www.w3.org/1999/xlink" x="0px" y="0px"
	 viewBox="0 0 113.8 115.7" style="enable-background:new 0 0 113.8 115.7;" xml:space="preserve">
<style type="text/css">
	.st0{fill:#3A4D56;}
	.st1{fill:#FFFFFF;}
	.st2{fill:#FFFFFF;stroke:#FFFFFF;stroke-width:0.25;stroke-miterlimit:10;}
</style>
<title>circle</title>
<circle class="st0" cx="57.2" cy="60" r="53.8"/>
<polygon class="st1" points="85.6,60.1 85.6,92.8 28.9,92.8 28.9,59.9 57.4,76.4 "/>
<polygon class="st1" points="28.9,56.6 28.9,51.4 85.6,51.4 85.6,56.8 57.4,73 "/>
<g>
	<path class="st2" d="M32.5,19.8h-3.1V19h7v0.8h-3.1v8.1h-0.9V19.8z"/>
	<path class="st2" d="M38.3,19h0.9v8.8h-0.9V19z"/>
	<path class="st2" d="M41.9,19h0.9v8h4v0.8h-4.9V19z"/>
	<path class="st2" d="M57,19v8.8h-0.8v-7.7l-2.9,7h-0.8l-2.9-7v7.7h-0.8V19h1.2l3,7.2l3-7.2H57z"/>
	<path class="st2" d="M59.8,19h5.8v0.8h-4.9V23h4.4v0.8h-4.4V27h4.9v0.8h-5.8V19z"/>
	<path class="st2" d="M67.8,19h0.9v8h4v0.8h-4.9V19z"/>
	<path class="st2" d="M74.5,19h2.4c2.9,0,4.5,1.6,4.5,4.5c0,2.8-1.6,4.4-4.5,4.4h-2.4V19z M76.8,27c2.4,0,3.7-1.1,3.7-3.6
		c0-2.5-1.2-3.7-3.7-3.7h-1.5V27H76.8z"/>
	<path class="st2" d="M23.2,34.4v8.8h-0.9l-4.4-7.5v7.5h-0.8v-8.8H18l4.4,7.5v-7.5H23.2z"/>
	<path class="st2" d="M28.3,39.8L25,34.4h1l2.8,4.6l2.8-4.6h1l-3.4,5.5v3.4h-0.9V39.8z"/>
	<path class="st2" d="M34.4,34.4h0.9v4h4.6v-4h0.9v8.8h-0.9v-4h-4.6v4h-0.9V34.4z"/>
	<path class="st2" d="M43.5,34.4h5.8v0.8h-4.9v3.2h4.4v0.8h-4.4v3.2h4.9v0.8h-5.8V34.4z"/>
	<path class="st2" d="M51.5,34.4h2.4c2.9,0,4.5,1.6,4.5,4.5c0,2.8-1.6,4.4-4.5,4.4h-2.4V34.4z M53.8,42.4c2.4,0,3.7-1.1,3.7-3.6
		c0-2.5-1.2-3.7-3.7-3.7h-1.5v7.3H53.8z"/>
	<path class="st2" d="M59.8,40.9l0.9-0.2c0.2,1.2,1.1,1.9,2.2,1.9c1.2,0,2-0.7,2-1.7c0-2.3-4.5-1.6-4.5-4.3c0-1.4,1.1-2.3,2.5-2.3
		c1.1,0,1.9,0.4,2.5,1.4l-0.7,0.4c-0.4-0.7-1-1.1-1.8-1.1c-0.9,0-1.6,0.6-1.6,1.5c0,2.1,4.5,1.4,4.5,4.3c0,1.5-1.2,2.5-2.8,2.5
		C61.3,43.3,60,42.5,59.8,40.9z"/>
	<path class="st2" d="M67.8,34.4h2.7c1.5,0,2.6,0.7,2.6,2.3c0,0.9-0.5,1.6-1.2,1.9c1,0.2,1.6,1.1,1.6,2.2c0,1.6-1.2,2.4-2.8,2.4
		h-2.9V34.4z M70.7,38.3c0.9,0,1.6-0.5,1.6-1.6c0-1-0.7-1.5-1.8-1.5h-1.8v3.1H70.7z M70.7,42.4c1.3,0,2-0.6,2-1.7
		c0-1-0.7-1.7-1.7-1.7h-2.3v3.4H70.7z"/>
	<path class="st2" d="M75.7,34.4h2.5c1.7,0,2.9,0.9,2.9,2.5c0,1.2-0.7,2-1.9,2.3l2.4,4.1h-1l-2.3-4c-0.2,0-0.4,0-0.6,0h-1.3v4h-0.9
		V34.4z M78.3,38.5c1.3,0,2-0.6,2-1.7c0-1.1-0.8-1.7-2.1-1.7h-1.6v3.4H78.3z"/>
	<path class="st2" d="M83.6,34.4h5.8v0.8h-4.9v3.2h4.4v0.8h-4.4v3.2h4.9v0.8h-5.8V34.4z"/>
	<path class="st2" d="M98.4,34.4l-3.5,8.8h-0.7l-3.5-8.8h0.9l2.9,7.5l2.9-7.5H98.4z"/>
</g>
</svg>
