<svg id="Layer_1" data-name="Layer 1" xmlns="http://www.w3.org/2000/svg" viewBox="0 0 273 174"><defs><style>.cls-1{font-size:42.58px;font-family:HKGrotesk-Bold, HK Grotesk;font-weight:700;letter-spacing:0em;}.cls-1,.cls-4{fill:#3a4d56;}.cls-2{letter-spacing:0em;}.cls-3{fill:none;stroke:#3a4d56;stroke-miterlimit:10;stroke-width:2.18px;}</style></defs><title>circle</title><text class="cls-1" transform="translate(16.89 118.84)">S<tspan class="cls-2" x="23.55" y="0">ORTIMENT</tspan></text><line class="cls-3" x1="21" y1="79" x2="253" y2="79"/><polygon class="cls-4" points="112.72 132 156.58 132 134.65 160.11 112.72 132"/><path class="cls-4" d="M146.5,57.39S148.55,36.1,152.56,30c2.07-3.14,7.89-2.34,8.44.73,1.25,6.85-4.65,27.72-4.65,27.72Z"/><path class="cls-4" d="M149.47,39.37a32,32,0,0,1,4.29-.25,10.65,10.65,0,0,1,4.14.82"/><path class="cls-4" d="M148.48,46.29a16.83,16.83,0,0,1,4.17-.36,10.07,10.07,0,0,1,4,1"/><path class="cls-4" d="M148,49.67a16.4,16.4,0,0,1,4.18-.37,10,10,0,0,1,4,1"/><path class="cls-4" d="M133.74,46.6C133.41,45.11,132,44,130.63,43c-1.79-1.23-4-2.39-6.24-2,1.91-2.71,3.48-8.6-2.74-8.88-1.33-.06-2,1.59-2.3,2.69a4.33,4.33,0,0,0-1.57-4.22,5.35,5.35,0,0,0-5-.78,5.09,5.09,0,0,0-3,3.57,12.71,12.71,0,0,0,0,4.56,5.84,5.84,0,0,0-5.31.3,6,6,0,0,0-3.07,4.12A5.37,5.37,0,0,0,103,47.07a2.76,2.76,0,0,0-3.15,1,2.54,2.54,0,0,0,.34,3,5.35,5.35,0,0,0,3.09,1.61l0,.24a5.64,5.64,0,0,0-1.69-.08.75.75,0,0,1,0,.16,8.46,8.46,0,0,0,.45,1.28,1.77,1.77,0,0,1,.23.48,7.37,7.37,0,0,1,1.06,3.44,2.46,2.46,0,0,1-.16.76A7.55,7.55,0,0,0,107,62.71a15.66,15.66,0,0,0,6.18,1.41,8,8,0,0,0,3.13-.33,2.72,2.72,0,0,0,1.91-2,5,5,0,0,0,4.42,1.52,9.81,9.81,0,0,0,4.46-1.84c1.9-1.32,3.6-3.27,3.14-5.31-.31-1.38-1.54-2.48-2-3.81a9.72,9.72,0,0,0,4.11-2A4,4,0,0,0,133.74,46.6Z"/><path class="cls-4" d="M114.06,34.55s-2.31.14-2.22.54c0,.15.42.33.47.54l1.85,7.68s-3.07,1-2.78,2.15l3.92,16.25,5-.69h-.05l5-.7-3.92-16.25c-.29-1.19-3.61-1.26-3.61-1.26l-1.85-7.68c-.06-.22.22-.48.18-.63-.1-.4-2.33.09-2.33.09Z"/><ellipse class="cls-4" cx="144.66" cy="47.32" rx="4.64" ry="6.87" transform="translate(85.34 187.49) rotate(-85.18)"/><path class="cls-4" d="M145.12,43.2c.37-.78,1.13-1.75-.73-3.38a7.29,7.29,0,0,0-1.35-.74,6.75,6.75,0,0,1-1.51-1l-.43,1.58a2.9,2.9,0,0,0-.06,2A2.7,2.7,0,0,0,142.7,43a6.33,6.33,0,0,0,2.42.24"/><path class="cls-4" d="M145.59,43.46A3.85,3.85,0,0,1,148.8,41"/><path class="cls-4" d="M125.5,36.28s-2.33-.05-2.28.36c0,.15.36.35.38.57l.78,7.78s-3.19.71-3.07,1.92l1.63,16.48L128,63.1h0l5.06-.29-1.63-16.48c-.12-1.2-3.42-1.54-3.42-1.54L127.2,37c0-.21.29-.45.27-.61,0-.41-2.33-.09-2.33-.09Z"/><ellipse class="cls-4" cx="137.52" cy="50.42" rx="6.92" ry="4.61"/><path class="cls-4" d="M155.67,56.23s5.86-20.88,10.93-26.5c2.61-2.9,8.23-1.5,8.23,1.59,0,6.92-9.6,27-9.6,27Z"/><path class="cls-4" d="M161.85,38.69a34.3,34.3,0,0,1,4.29.19,10.36,10.36,0,0,1,4,1.25"/><path class="cls-4" d="M159.63,45.45a16.46,16.46,0,0,1,4.2.07,9.12,9.12,0,0,1,3.78,1.39"/><path class="cls-4" d="M156.85,52.28a16.46,16.46,0,0,1,4.2.08,9.36,9.36,0,0,1,3.79,1.38"/><path class="cls-4" d="M99.51,49.32a8.73,8.73,0,0,0,6,2,10.56,10.56,0,0,0,5.34-1.53c1.74-1,3.83-1.76,5.82-1.3a9.58,9.58,0,0,1,2.28,1,19.28,19.28,0,0,0,5.23,2,7.83,7.83,0,0,0,5.51-.81c1.36-.87,2.22-2.3,3.79-2.87s3.68,0,5.32.78,3.3,1.7,5.17,1.68c4,0,6.95-4.39,10.93-3.85,2.3.32,3.81,2.17,5.8,3.21a8.79,8.79,0,0,0,7.9,0l.85-.2V70.26H99.51V49.32Z"/><path class="cls-4" d="M137.07,46.49c.08-.83.46-1.91-1.9-3.11A9.09,9.09,0,0,0,133.6,43a7.84,7.84,0,0,1-1.81-.67l.15,1.61a3.12,3.12,0,0,0,.65,2,3.26,3.26,0,0,0,2.07.91,6.13,6.13,0,0,0,2.41-.26"/><path class="cls-4" d="M137.28,46.46a3.17,3.17,0,0,1,2.22-3"/></svg>
